<?xml version="1.0" encoding="UTF-8"?>
<!-- Generator: Adobe Illustrator 25.4.8, SVG Export Plug-In . SVG Version: 6.00 Build 0)  -->
<svg xmlns="http://www.w3.org/2000/svg" xmlns:xlink="http://www.w3.org/1999/xlink" version="1.1" id="Capa_1" x="0px" y="0px" viewBox="0 0 237.4 83.7" style="enable-background:new 0 0 237.4 83.7;" xml:space="preserve">
<g>
	<path d="M31.2,41.9c3.6,3.4,4.9,9.2,4.9,14.5v24.9h-8.5V56.8c0-7.3-2.5-10.3-9.8-10.3H9.7v34.9H1.2V2.5H18c15.1,0,18.6,9,18.6,22.1   C36.6,30.6,35.6,37.6,31.2,41.9z M18,5.6H4.3v72.4h2.2V43.2h11.2c9.8,0,13,4.1,13,13.6v21.3H33V56.4c0-6.2-1.5-12.6-8.5-14.3   c7.7-2.3,8.9-10.5,8.9-17.6C33.3,13.5,30.4,5.6,18,5.6z M6.5,41.1V7.9h11c11.5,0,13.7,6.8,13.7,16.7c0,11.1-2.9,16.5-14.7,16.5H6.5   z M28,24.6C28,16.5,26.3,11,17.5,11H9.7v26.8h6.8C25.7,37.8,28,33.5,28,24.6z"/>
	<path d="M43.3,81.3V2.5h8.5v78.9H43.3z M48.7,5.6h-2.2v72.4h2.2V5.6z"/>
	<path d="M69.3,72.8h26.3v8.5H59.1v-6.7l26-63.7H60.7V2.5h34.4V9L69.3,72.8z M92,8.3V5.6H64v2.2h25.7V8L62.2,75.4v2.7h30.1v-2.1   H64.6v-0.2L92,8.3z"/>
	<path d="M99.3,59.9V23.8c0-11.9,6.1-22.1,19.4-22.1c13.5,0,19.3,10.2,19.3,22.1v36.2c0,12.6-5.5,22.1-19.3,22.1   C105.2,82,99.3,72.3,99.3,59.9z M134.8,59.9V23.8c0-10.2-4.8-19.1-16-19.1c-11.1,0-16.1,8.9-16.1,19.1v36.2c0,10.5,4.8,19,16.1,19   C130.3,78.9,134.8,70.7,134.8,59.9z M132.7,24.9v34.4c0,9.4-3.4,17.3-13.9,17.3c-10.5,0-14-8.4-14-17.7V24.8   c0-8.9,3.7-17.8,14-17.8C129.4,7,132.7,15.7,132.7,24.9z M107.9,24.8V59c0,7.5,2.8,14.5,10.9,14.5c8.2,0,10.6-6.6,10.6-14.2V24.9   c0-7.5-2.5-14.6-10.6-14.6C110.8,10.3,107.9,17.4,107.9,24.8z"/>
	<path d="M144.7,81.3V2.5h7.6L167,59.6l14.7-57.1h7.6v78.9h-8.5V40.6l-10.2,40.7h-6.9l-10.3-40.1v40.1H144.7z M150.1,15.6l16,62.5h2   l15.8-62.6v62.6h2.2V5.6h-2l-17.2,67l-17.1-67H148v72.4h2.1V15.6z"/>
	<path d="M193.5,81.3l18-78.9h6.8l17.9,78.9h-8.8l-4.9-22.6h-15l-5.3,22.6H193.5z M204.7,55.6h20.4l5,22.5h2.1L215.7,5.6h-1.6   l-16.6,72.4h2.2L204.7,55.6z M224.6,53.5h-19.4l9.7-42.5L224.6,53.5z M209.3,50.3h11.2l-5.6-25L209.3,50.3z"/>
</g>
</svg>